<svg width="9" height="9" viewBox="0 0 9 9" fill="none" xmlns="http://www.w3.org/2000/svg">
<path fill-rule="evenodd" clip-rule="evenodd" d="M7.44174 3.16505L7.90622 2.70057L6.88245 1.67679L6.41796 2.14128L7.44174 3.16505ZM6.85559 3.75121L5.83181 2.72743L2.00203 6.55721L1.7664 7.81662L3.02581 7.58099L6.85559 3.75121ZM8.51714 2.13917C8.82719 2.44922 8.82719 2.95192 8.51714 3.26197L3.52123 8.25787C3.46213 8.31698 3.38654 8.35683 3.30438 8.3722L1.32391 8.74274C1.03752 8.79632 0.786695 8.5455 0.840276 8.25911L1.21082 6.27864C1.22619 6.19648 1.26604 6.12089 1.32514 6.06179L6.32105 1.06588C6.6311 0.75583 7.13379 0.75583 7.44385 1.06588L8.51714 2.13917ZM8.33713 8.75001H4.99555C4.44549 8.75001 4.44549 7.91668 4.99555 7.91668H8.33713C8.88719 7.91668 8.88719 8.75001 8.33713 8.75001Z" fill="#676874"/>
</svg>
