<svg width="10" height="8" viewBox="0 0 10 8" fill="none" xmlns="http://www.w3.org/2000/svg">
<path fill-rule="evenodd" clip-rule="evenodd" d="M0.878836 3.76561C1.64727 1.8784 3.23268 0.666656 4.99967 0.666656C6.76666 0.666656 8.35208 1.8784 9.12051 3.76561C9.18162 3.91568 9.18162 4.0843 9.12051 4.23437C8.35208 6.12158 6.76666 7.33332 4.99967 7.33332C3.23268 7.33332 1.64727 6.12158 0.878836 4.23437C0.817732 4.0843 0.817732 3.91568 0.878836 3.76561ZM4.99967 6.56235C6.42428 6.56235 7.7304 5.5778 8.39547 3.99999C7.7304 2.42218 6.42428 1.43763 4.99967 1.43763C3.57507 1.43763 2.26895 2.42218 1.60388 3.99999C2.26895 5.5778 3.57507 6.56235 4.99967 6.56235ZM4.99967 5.51926C4.17519 5.51926 3.5068 4.83906 3.5068 3.99999C3.5068 3.16092 4.17519 2.48072 4.99967 2.48072C5.82416 2.48072 6.49254 3.16092 6.49254 3.99999C6.49254 4.83906 5.82416 5.51926 4.99967 5.51926ZM4.99967 4.74829C5.40577 4.74829 5.73497 4.41326 5.73497 3.99999C5.73497 3.58671 5.40577 3.25169 4.99967 3.25169C4.59358 3.25169 4.26438 3.58671 4.26438 3.99999C4.26438 4.41326 4.59358 4.74829 4.99967 4.74829Z" fill="#676874"/>
</svg>
