<svg width="10" height="10" viewBox="0 0 10 10" fill="none" xmlns="http://www.w3.org/2000/svg">
<path fill-rule="evenodd" clip-rule="evenodd" d="M6.66699 0.416656H3.33366C1.72283 0.416656 0.416992 1.72249 0.416992 3.33332V6.66666C0.416992 8.27749 1.72283 9.58332 3.33366 9.58332H6.66699C8.27782 9.58332 9.58366 8.27749 9.58366 6.66666V3.33332C9.58366 1.72249 8.27782 0.416656 6.66699 0.416656ZM1.25033 3.33332C1.25033 2.18273 2.18307 1.24999 3.33366 1.24999H6.66699C7.81758 1.24999 8.75032 2.18273 8.75032 3.33332V6.66666C8.75032 7.81725 7.81758 8.74999 6.66699 8.74999H3.33366C2.18307 8.74999 1.25033 7.81725 1.25033 6.66666V3.33332Z" fill="#DA1414"/>
<path fill-rule="evenodd" clip-rule="evenodd" d="M4.33958 4.9285L3.4557 4.04462C3.29298 3.8819 3.29298 3.61808 3.4557 3.45536C3.61842 3.29264 3.88223 3.29264 4.04495 3.45536L4.92884 4.33924L5.81272 3.45536C5.97544 3.29264 6.23926 3.29264 6.40198 3.45536C6.56469 3.61808 6.56469 3.8819 6.40198 4.04462L5.51809 4.9285L6.40198 5.81238C6.56469 5.9751 6.56469 6.23892 6.40198 6.40164C6.23926 6.56436 5.97544 6.56436 5.81272 6.40164L4.92884 5.51776L4.04495 6.40164C3.88223 6.56436 3.61842 6.56436 3.4557 6.40164C3.29298 6.23892 3.29298 5.9751 3.4557 5.81238L4.33958 4.9285Z" fill="#DA1414"/>
</svg>
