<svg width="10" height="10" viewBox="0 0 10 10" fill="none" xmlns="http://www.w3.org/2000/svg">
<path fill-rule="evenodd" clip-rule="evenodd" d="M7.91648 6.25001V2.50001C7.91648 2.03977 7.54339 1.66668 7.08315 1.66668H2.91648C2.45625 1.66668 2.08315 2.03977 2.08315 2.50001V6.25001H3.76294C3.99562 6.25001 4.18322 6.44058 4.17955 6.67324L4.17309 7.08362L5.83734 7.08472L5.84213 6.66196C5.84471 6.4337 6.03049 6.25001 6.25877 6.25001H7.91648ZM8.74982 6.25001C9.01275 6.25001 9.20996 6.49056 9.15839 6.74839L8.9427 7.82687C8.78689 8.60591 8.10286 9.16668 7.30839 9.16668H2.69124C1.89677 9.16668 1.21274 8.60591 1.05694 7.82687L0.841241 6.74839C0.789675 6.49056 0.98688 6.25001 1.24982 6.25001V2.50001C1.24982 1.57954 1.99601 0.833344 2.91648 0.833344H7.08315C8.00362 0.833344 8.74982 1.57954 8.74982 2.50001V6.25001ZM1.75807 7.08334L1.87409 7.66344C1.95199 8.05296 2.294 8.33334 2.69124 8.33334H7.30839C7.70563 8.33334 8.04764 8.05296 8.12555 7.66344L8.24156 7.08334H6.67074L6.66596 7.50638C6.66337 7.73475 6.47743 7.91848 6.24904 7.91833L3.74954 7.91668C3.51696 7.91652 3.32954 7.726 3.3332 7.49345L3.33966 7.08334H1.75807Z" fill="#676874"/>
</svg>
