<svg width="13" height="13" viewBox="0 0 13 13" fill="none" xmlns="http://www.w3.org/2000/svg">
<path fill-rule="evenodd" clip-rule="evenodd" d="M10.1631 4.24756L10.8598 3.55084L9.32416 2.01518L8.62744 2.7119L10.1631 4.24756ZM9.28387 5.1268L7.7482 3.59113L2.00353 9.3358L1.65009 11.2249L3.5392 10.8715L9.28387 5.1268ZM11.7762 2.70874C12.2413 3.17382 12.2413 3.92786 11.7762 4.39294L4.28234 11.8868C4.19368 11.9755 4.08029 12.0352 3.95706 12.0583L0.986347 12.6141C0.55677 12.6945 0.18053 12.3182 0.260903 11.8887L0.816713 8.91794C0.83977 8.79471 0.899549 8.68132 0.988204 8.59266L8.48206 1.09881C8.94714 0.63373 9.70118 0.63373 10.1663 1.09881L11.7762 2.70874ZM11.5062 12.625H6.49381C5.66873 12.625 5.66873 11.375 6.49381 11.375H11.5062C12.3313 11.375 12.3313 12.625 11.5062 12.625Z" fill="white"/>
</svg>
