<svg width="13" height="10" viewBox="0 0 13 10" fill="none" xmlns="http://www.w3.org/2000/svg">
<path fill-rule="evenodd" clip-rule="evenodd" d="M0.318742 4.64843C1.4714 1.81761 3.84952 0 6.5 0C9.15049 0 11.5286 1.81761 12.6813 4.64843C12.7729 4.87353 12.7729 5.12647 12.6813 5.35157C11.5286 8.18239 9.15049 10 6.5 10C3.84952 10 1.4714 8.18239 0.318742 5.35157C0.227086 5.12647 0.227086 4.87353 0.318742 4.64843ZM6.5 8.84354C8.63691 8.84354 10.5961 7.36672 11.5937 5C10.5961 2.63328 8.63691 1.15646 6.5 1.15646C4.36309 1.15646 2.40391 2.63328 1.40631 5C2.40391 7.36672 4.36309 8.84354 6.5 8.84354ZM6.5 7.27891C5.26327 7.27891 4.2607 6.25861 4.2607 5C4.2607 3.74139 5.26327 2.72109 6.5 2.72109C7.73673 2.72109 8.73931 3.74139 8.73931 5C8.73931 6.25861 7.73673 7.27891 6.5 7.27891ZM6.5 6.12245C7.10914 6.12245 7.60294 5.61991 7.60294 5C7.60294 4.38009 7.10914 3.87755 6.5 3.87755C5.89086 3.87755 5.39706 4.38009 5.39706 5C5.39706 5.61991 5.89086 6.12245 6.5 6.12245Z" fill="white"/>
</svg>
